# xmcd
#
# Track frame offsets:
#	150
#	18067
#	36697
#	54275
#	71457
#	88897
#	105380
#
# Disc length: 1576 seconds
#
# Revision: 1
# Processed by: cddbd v1.4PL0 Copyright (c) Steve Scherf et al.
# Submitted via: audiograbber 1.81.02
#
DISCID=52062607
DTITLE=Brooks and Dunn and Reba - Listening Station CD
DYEAR=1998
DGENRE=Country
TTITLE0=If You See Her (If you See Him)
TTITLE1=I Can't Get Over You
TTITLE2=One Honest Heart
TTITLE3=When Love Dies
TTITLE4=Forever Love
TTITLE5=How Long Gone
TTITLE6=Wrong Night
EXTD=
EXTT0=
EXTT1=
EXTT2=
EXTT3=
EXTT4=
EXTT5=
EXTT6=
PLAYORDER=
